<?xml version="1.0" encoding="UTF-8" standalone="no"?>
<!DOCTYPE svg PUBLIC "-//W3C//DTD SVG 1.1//EN"
 "http://www.w3.org/Graphics/SVG/1.1/DTD/svg11.dtd">
<!-- Generated by graphviz version 2.40.1 (20161225.0304)
 -->
<!-- Title: ctl Pages: 1 -->
<svg width="263pt" height="265pt"
 viewBox="0.00 0.00 263.40 265.40" xmlns="http://www.w3.org/2000/svg" xmlns:xlink="http://www.w3.org/1999/xlink">
<g id="graph0" class="graph" transform="scale(1 1) rotate(0) translate(4 261.4)">
<title>ctl</title>
<polygon fill="#ffffff" stroke="transparent" points="-4,4 -4,-261.4 259.4,-261.4 259.4,4 -4,4"/>
<!-- a1 -->
<g id="node1" class="node">
<title>a1</title>
<ellipse fill="#c0c0c0" stroke="#000000" cx="138.2" cy="-237.2" rx="7.2" ry="7.2"/>
<text text-anchor="middle" x="107.5" y="-247.8" font-family="Helvetica,sans-Serif" font-size="12.00" fill="#000000">x=0; y=0</text>
</g>
<!-- b1 -->
<g id="node2" class="node">
<title>b1</title>
<ellipse fill="#c0c0c0" stroke="#000000" cx="117.2" cy="-193.8" rx="7.2" ry="7.2"/>
<text text-anchor="middle" x="86.5" y="-204.4" font-family="Helvetica,sans-Serif" font-size="12.00" fill="#000000">x=0; y=1</text>
</g>
<!-- a1&#45;&gt;b1 -->
<g id="edge1" class="edge">
<title>a1&#45;&gt;b1</title>
<path fill="none" stroke="#000000" d="M134.9188,-230.4188C132.2526,-224.9087 128.3828,-216.9112 124.9395,-209.7949"/>
<polygon fill="#000000" stroke="#000000" points="127.8957,-207.8686 120.3894,-200.3915 121.5946,-210.9176 127.8957,-207.8686"/>
</g>
<!-- b2 -->
<g id="node3" class="node">
<title>b2</title>
<ellipse fill="#c0c0c0" stroke="#000000" cx="160.2" cy="-193.8" rx="7.2" ry="7.2"/>
<text text-anchor="middle" x="143" y="-204.4" font-family="Helvetica,sans-Serif" font-size="12.00" fill="#000000">x=1</text>
</g>
<!-- a1&#45;&gt;b2 -->
<g id="edge2" class="edge">
<title>a1&#45;&gt;b2</title>
<path fill="none" stroke="#000000" d="M141.6375,-230.4188C144.4306,-224.9087 148.4846,-216.9112 152.092,-209.7949"/>
<polygon fill="#000000" stroke="#000000" points="155.459,-210.8935 156.8587,-200.3915 149.2154,-207.7285 155.459,-210.8935"/>
</g>
<!-- c1 -->
<g id="node4" class="node">
<title>c1</title>
<ellipse fill="#c0c0c0" stroke="#000000" cx="96.2" cy="-150.4" rx="7.2" ry="7.2"/>
<text text-anchor="middle" x="65.5" y="-161" font-family="Helvetica,sans-Serif" font-size="12.00" fill="#000000">x=0; y=2</text>
</g>
<!-- b1&#45;&gt;c1 -->
<g id="edge3" class="edge">
<title>b1&#45;&gt;c1</title>
<path fill="none" stroke="#000000" d="M113.9188,-187.0188C111.2526,-181.5087 107.3828,-173.5112 103.9395,-166.3949"/>
<polygon fill="#000000" stroke="#000000" points="106.8957,-164.4686 99.3894,-156.9915 100.5946,-167.5176 106.8957,-164.4686"/>
</g>
<!-- c2 -->
<g id="node5" class="node">
<title>c2</title>
<ellipse fill="#c0c0c0" stroke="#000000" cx="139.2" cy="-150.4" rx="7.2" ry="7.2"/>
<text text-anchor="middle" x="122" y="-161" font-family="Helvetica,sans-Serif" font-size="12.00" fill="#000000">x=1</text>
</g>
<!-- b1&#45;&gt;c2 -->
<g id="edge4" class="edge">
<title>b1&#45;&gt;c2</title>
<path fill="none" stroke="#000000" d="M120.6375,-187.0188C123.4306,-181.5087 127.4846,-173.5112 131.092,-166.3949"/>
<polygon fill="#000000" stroke="#000000" points="134.459,-167.4935 135.8587,-156.9915 128.2154,-164.3285 134.459,-167.4935"/>
</g>
<!-- b2&#45;&gt;c2 -->
<!-- c3 -->
<g id="node6" class="node">
<title>c3</title>
<ellipse fill="#c0c0c0" stroke="#000000" cx="182.2" cy="-150.4" rx="7.2" ry="7.2"/>
<text text-anchor="middle" x="165" y="-161" font-family="Helvetica,sans-Serif" font-size="12.00" fill="#000000">x=2</text>
</g>
<!-- b2&#45;&gt;c3 -->
<g id="edge6" class="edge">
<title>b2&#45;&gt;c3</title>
<path fill="none" stroke="#000000" d="M163.6375,-187.0188C166.4306,-181.5087 170.4846,-173.5112 174.092,-166.3949"/>
<polygon fill="#000000" stroke="#000000" points="177.459,-167.4935 178.8587,-156.9915 171.2154,-164.3285 177.459,-167.4935"/>
</g>
<!-- d1 -->
<g id="node7" class="node">
<title>d1</title>
<ellipse fill="#c0c0c0" stroke="#000000" cx="75.2" cy="-107" rx="7.2" ry="7.2"/>
<text text-anchor="middle" x="44.5" y="-117.6" font-family="Helvetica,sans-Serif" font-size="12.00" fill="#000000">x=0; y=3</text>
</g>
<!-- c1&#45;&gt;d1 -->
<g id="edge7" class="edge">
<title>c1&#45;&gt;d1</title>
<path fill="none" stroke="#000000" d="M92.9188,-143.6188C90.2526,-138.1087 86.3828,-130.1112 82.9395,-122.9949"/>
<polygon fill="#000000" stroke="#000000" points="85.8957,-121.0686 78.3894,-113.5915 79.5946,-124.1176 85.8957,-121.0686"/>
</g>
<!-- d2 -->
<g id="node8" class="node">
<title>d2</title>
<ellipse fill="#c0c0c0" stroke="#000000" cx="118.2" cy="-107" rx="7.2" ry="7.2"/>
<text text-anchor="middle" x="101" y="-117.6" font-family="Helvetica,sans-Serif" font-size="12.00" fill="#000000">x=1</text>
</g>
<!-- c1&#45;&gt;d2 -->
<g id="edge8" class="edge">
<title>c1&#45;&gt;d2</title>
<path fill="none" stroke="#000000" d="M99.6375,-143.6188C102.4306,-138.1087 106.4846,-130.1112 110.092,-122.9949"/>
<polygon fill="#000000" stroke="#000000" points="113.459,-124.0935 114.8587,-113.5915 107.2154,-120.9285 113.459,-124.0935"/>
</g>
<!-- c2&#45;&gt;d2 -->
<g id="edge9" class="edge">
<title>c2&#45;&gt;d2</title>
<path fill="none" stroke="#000000" d="M135.9188,-143.6188C133.2526,-138.1087 129.3828,-130.1112 125.9395,-122.9949"/>
<polygon fill="#000000" stroke="#000000" points="128.8957,-121.0686 121.3894,-113.5915 122.5946,-124.1176 128.8957,-121.0686"/>
</g>
<!-- d3 -->
<g id="node9" class="node">
<title>d3</title>
<ellipse fill="#c0c0c0" stroke="#000000" cx="161.2" cy="-107" rx="7.2" ry="7.2"/>
<text text-anchor="middle" x="144" y="-117.6" font-family="Helvetica,sans-Serif" font-size="12.00" fill="#000000">x=2</text>
</g>
<!-- c2&#45;&gt;d3 -->
<!-- c3&#45;&gt;d3 -->
<g id="edge11" class="edge">
<title>c3&#45;&gt;d3</title>
<path fill="none" stroke="#000000" d="M178.9188,-143.6188C176.2526,-138.1087 172.3828,-130.1112 168.9395,-122.9949"/>
<polygon fill="#000000" stroke="#000000" points="171.8957,-121.0686 164.3894,-113.5915 165.5946,-124.1176 171.8957,-121.0686"/>
</g>
<!-- d4 -->
<g id="node10" class="node">
<title>d4</title>
<ellipse fill="#c0c0c0" stroke="#000000" cx="204.2" cy="-107" rx="7.2" ry="7.2"/>
<text text-anchor="middle" x="187" y="-117.6" font-family="Helvetica,sans-Serif" font-size="12.00" fill="#000000">x=3</text>
</g>
<!-- c3&#45;&gt;d4 -->
<g id="edge12" class="edge">
<title>c3&#45;&gt;d4</title>
<path fill="none" stroke="#000000" d="M185.6375,-143.6188C188.4306,-138.1087 192.4846,-130.1112 196.092,-122.9949"/>
<polygon fill="#000000" stroke="#000000" points="199.459,-124.0935 200.8587,-113.5915 193.2154,-120.9285 199.459,-124.0935"/>
</g>
<!-- e1 -->
<g id="node11" class="node">
<title>e1</title>
<ellipse fill="#c0c0c0" stroke="#000000" cx="54.2" cy="-63.6" rx="7.2" ry="7.2"/>
<text text-anchor="middle" x="23.5" y="-74.2" font-family="Helvetica,sans-Serif" font-size="12.00" fill="#000000">x=0; y=4</text>
</g>
<!-- d1&#45;&gt;e1 -->
<g id="edge13" class="edge">
<title>d1&#45;&gt;e1</title>
<path fill="none" stroke="#000000" d="M71.9188,-100.2188C69.2526,-94.7087 65.3828,-86.7112 61.9395,-79.5949"/>
<polygon fill="#000000" stroke="#000000" points="64.8957,-77.6686 57.3894,-70.1915 58.5946,-80.7176 64.8957,-77.6686"/>
</g>
<!-- e2 -->
<g id="node12" class="node">
<title>e2</title>
<ellipse fill="#c0c0c0" stroke="#000000" cx="97.2" cy="-63.6" rx="7.2" ry="7.2"/>
<text text-anchor="middle" x="80" y="-74.2" font-family="Helvetica,sans-Serif" font-size="12.00" fill="#000000">x=1</text>
</g>
<!-- d1&#45;&gt;e2 -->
<!-- d2&#45;&gt;e2 -->
<g id="edge15" class="edge">
<title>d2&#45;&gt;e2</title>
<path fill="none" stroke="#000000" d="M114.9188,-100.2188C112.2526,-94.7087 108.3828,-86.7112 104.9395,-79.5949"/>
<polygon fill="#000000" stroke="#000000" points="107.8957,-77.6686 100.3894,-70.1915 101.5946,-80.7176 107.8957,-77.6686"/>
</g>
<!-- e3 -->
<g id="node13" class="node">
<title>e3</title>
<ellipse fill="#c0c0c0" stroke="#000000" cx="140.2" cy="-63.6" rx="7.2" ry="7.2"/>
<text text-anchor="middle" x="123" y="-74.2" font-family="Helvetica,sans-Serif" font-size="12.00" fill="#000000">x=2</text>
</g>
<!-- d2&#45;&gt;e3 -->
<!-- d3&#45;&gt;e3 -->
<g id="edge17" class="edge">
<title>d3&#45;&gt;e3</title>
<path fill="none" stroke="#000000" d="M157.9188,-100.2188C155.2526,-94.7087 151.3828,-86.7112 147.9395,-79.5949"/>
<polygon fill="#000000" stroke="#000000" points="150.8957,-77.6686 143.3894,-70.1915 144.5946,-80.7176 150.8957,-77.6686"/>
</g>
<!-- e4 -->
<g id="node14" class="node">
<title>e4</title>
<ellipse fill="#c0c0c0" stroke="#000000" cx="183.2" cy="-63.6" rx="7.2" ry="7.2"/>
<text text-anchor="middle" x="166" y="-74.2" font-family="Helvetica,sans-Serif" font-size="12.00" fill="#000000">x=3</text>
</g>
<!-- d3&#45;&gt;e4 -->
<g id="edge18" class="edge">
<title>d3&#45;&gt;e4</title>
<path fill="none" stroke="#000000" d="M164.6375,-100.2188C167.4306,-94.7087 171.4846,-86.7112 175.092,-79.5949"/>
<polygon fill="#000000" stroke="#000000" points="178.459,-80.6935 179.8587,-70.1915 172.2154,-77.5285 178.459,-80.6935"/>
</g>
<!-- d4&#45;&gt;e4 -->
<!-- e5 -->
<g id="node15" class="node">
<title>e5</title>
<ellipse fill="#c0c0c0" stroke="#000000" cx="226.2" cy="-63.6" rx="7.2" ry="7.2"/>
<text text-anchor="middle" x="209" y="-74.2" font-family="Helvetica,sans-Serif" font-size="12.00" fill="#000000">x=4</text>
</g>
<!-- d4&#45;&gt;e5 -->
<g id="edge20" class="edge">
<title>d4&#45;&gt;e5</title>
<path fill="none" stroke="#000000" d="M207.6375,-100.2188C210.4306,-94.7087 214.4846,-86.7112 218.092,-79.5949"/>
<polygon fill="#000000" stroke="#000000" points="221.459,-80.6935 222.8587,-70.1915 215.2154,-77.5285 221.459,-80.6935"/>
</g>
<!-- f1 -->
<g id="node16" class="node">
<title>f1</title>
<ellipse fill="#c0c0c0" stroke="#000000" cx="33.2" cy="-20.2" rx="7.2" ry="7.2"/>
<text text-anchor="middle" x="16" y="-30.8" font-family="Helvetica,sans-Serif" font-size="12.00" fill="#000000">x=0</text>
</g>
<!-- e1&#45;&gt;f1 -->
<g id="edge21" class="edge">
<title>e1&#45;&gt;f1</title>
<path fill="none" stroke="#000000" d="M50.9188,-56.8188C48.2526,-51.3087 44.3828,-43.3112 40.9395,-36.1949"/>
<polygon fill="#000000" stroke="#000000" points="43.8957,-34.2686 36.3894,-26.7915 37.5946,-37.3176 43.8957,-34.2686"/>
</g>
<!-- f2 -->
<g id="node17" class="node">
<title>f2</title>
<ellipse fill="#c0c0c0" stroke="#000000" cx="76.2" cy="-20.2" rx="7.2" ry="7.2"/>
<text text-anchor="middle" x="59" y="-30.8" font-family="Helvetica,sans-Serif" font-size="12.00" fill="#000000">x=1</text>
</g>
<!-- e1&#45;&gt;f2 -->
<g id="edge22" class="edge">
<title>e1&#45;&gt;f2</title>
<path fill="none" stroke="#000000" d="M57.6375,-56.8188C60.4306,-51.3087 64.4846,-43.3112 68.092,-36.1949"/>
<polygon fill="#000000" stroke="#000000" points="71.459,-37.2935 72.8587,-26.7915 65.2154,-34.1285 71.459,-37.2935"/>
</g>
<!-- e2&#45;&gt;f2 -->
<!-- f3 -->
<g id="node18" class="node">
<title>f3</title>
<ellipse fill="#c0c0c0" stroke="#000000" cx="119.2" cy="-20.2" rx="7.2" ry="7.2"/>
<text text-anchor="middle" x="102" y="-30.8" font-family="Helvetica,sans-Serif" font-size="12.00" fill="#000000">x=2</text>
</g>
<!-- e2&#45;&gt;f3 -->
<g id="edge24" class="edge">
<title>e2&#45;&gt;f3</title>
<path fill="none" stroke="#000000" d="M100.6375,-56.8188C103.4306,-51.3087 107.4846,-43.3112 111.092,-36.1949"/>
<polygon fill="#000000" stroke="#000000" points="114.459,-37.2935 115.8587,-26.7915 108.2154,-34.1285 114.459,-37.2935"/>
</g>
<!-- e3&#45;&gt;f3 -->
<g id="edge25" class="edge">
<title>e3&#45;&gt;f3</title>
<path fill="none" stroke="#000000" d="M136.9188,-56.8188C134.2526,-51.3087 130.3828,-43.3112 126.9395,-36.1949"/>
<polygon fill="#000000" stroke="#000000" points="129.8957,-34.2686 122.3894,-26.7915 123.5946,-37.3176 129.8957,-34.2686"/>
</g>
<!-- f4 -->
<g id="node19" class="node">
<title>f4</title>
<ellipse fill="#c0c0c0" stroke="#000000" cx="162.2" cy="-20.2" rx="7.2" ry="7.2"/>
<text text-anchor="middle" x="145" y="-30.8" font-family="Helvetica,sans-Serif" font-size="12.00" fill="#000000">x=3</text>
</g>
<!-- e3&#45;&gt;f4 -->
<g id="edge26" class="edge">
<title>e3&#45;&gt;f4</title>
<path fill="none" stroke="#000000" d="M143.6375,-56.8188C146.4306,-51.3087 150.4846,-43.3112 154.092,-36.1949"/>
<polygon fill="#000000" stroke="#000000" points="157.459,-37.2935 158.8587,-26.7915 151.2154,-34.1285 157.459,-37.2935"/>
</g>
<!-- e4&#45;&gt;f4 -->
<!-- f5 -->
<g id="node20" class="node">
<title>f5</title>
<ellipse fill="#c0c0c0" stroke="#000000" cx="205.2" cy="-20.2" rx="7.2" ry="7.2"/>
<text text-anchor="middle" x="188" y="-30.8" font-family="Helvetica,sans-Serif" font-size="12.00" fill="#000000">x=4</text>
</g>
<!-- e4&#45;&gt;f5 -->
<g id="edge28" class="edge">
<title>e4&#45;&gt;f5</title>
<path fill="none" stroke="#000000" d="M186.6375,-56.8188C189.4306,-51.3087 193.4846,-43.3112 197.092,-36.1949"/>
<polygon fill="#000000" stroke="#000000" points="200.459,-37.2935 201.8587,-26.7915 194.2154,-34.1285 200.459,-37.2935"/>
</g>
<!-- e5&#45;&gt;f5 -->
<g id="edge29" class="edge">
<title>e5&#45;&gt;f5</title>
<path fill="none" stroke="#000000" d="M222.9188,-56.8188C220.2526,-51.3087 216.3828,-43.3112 212.9395,-36.1949"/>
<polygon fill="#000000" stroke="#000000" points="215.8957,-34.2686 208.3894,-26.7915 209.5946,-37.3176 215.8957,-34.2686"/>
</g>
<!-- f6 -->
<g id="node21" class="node">
<title>f6</title>
<ellipse fill="#c0c0c0" stroke="#000000" cx="248.2" cy="-20.2" rx="7.2" ry="7.2"/>
<text text-anchor="middle" x="217.5" y="-3.4" font-family="Helvetica,sans-Serif" font-size="12.00" fill="#000000">x=5; y=5</text>
</g>
<!-- e5&#45;&gt;f6 -->
<g id="edge30" class="edge">
<title>e5&#45;&gt;f6</title>
<path fill="none" stroke="#000000" d="M229.6375,-56.8188C232.4306,-51.3087 236.4846,-43.3112 240.092,-36.1949"/>
<polygon fill="#000000" stroke="#000000" points="243.459,-37.2935 244.8587,-26.7915 237.2154,-34.1285 243.459,-37.2935"/>
</g>
</g>
</svg>
