<?xml version="1.0" encoding="UTF-8" standalone="no"?>
<!DOCTYPE svg PUBLIC "-//W3C//DTD SVG 1.1//EN"
 "http://www.w3.org/Graphics/SVG/1.1/DTD/svg11.dtd">
<!-- Generated by graphviz version 2.40.1 (20161225.0304)
 -->
<!-- Title: ltl Pages: 1 -->
<svg width="252pt" height="35pt"
 viewBox="0.00 0.00 252.40 35.40" xmlns="http://www.w3.org/2000/svg" xmlns:xlink="http://www.w3.org/1999/xlink">
<g id="graph0" class="graph" transform="scale(1 1) rotate(0) translate(4 31.4)">
<title>ltl</title>
<polygon fill="#ffffff" stroke="transparent" points="-4,4 -4,-31.4 248.4,-31.4 248.4,4 -4,4"/>
<!-- a1 -->
<g id="node1" class="node">
<title>a1</title>
<ellipse fill="#ffffff" stroke="#000000" cx="20.2" cy="-20.2" rx="7.2" ry="7.2"/>
<text text-anchor="middle" x="6.5" y="-3.4" font-family="Helvetica,sans-Serif" font-size="12.00" fill="#000000">xy</text>
</g>
<!-- a2 -->
<g id="node2" class="node">
<title>a2</title>
<ellipse fill="#ffffff" stroke="#000000" cx="63.6" cy="-20.2" rx="7.2" ry="7.2"/>
<text text-anchor="middle" x="48.4" y="-3.4" font-family="Helvetica,sans-Serif" font-size="12.00" fill="#000000">x!y</text>
</g>
<!-- a1&#45;&gt;a2 -->
<g id="edge1" class="edge">
<title>a1&#45;&gt;a2</title>
<path fill="none" stroke="#000000" d="M27.7597,-20.2C32.7383,-20.2 39.4758,-20.2 45.7656,-20.2"/>
<polygon fill="#000000" stroke="#000000" points="46.127,-23.7001 56.1269,-20.2 46.1269,-16.7001 46.127,-23.7001"/>
</g>
<!-- a3 -->
<g id="node3" class="node">
<title>a3</title>
<ellipse fill="#ffffff" stroke="#000000" cx="107" cy="-20.2" rx="7.2" ry="7.2"/>
<text text-anchor="middle" x="91.8" y="-3.4" font-family="Helvetica,sans-Serif" font-size="12.00" fill="#000000">x!y</text>
</g>
<!-- a2&#45;&gt;a3 -->
<g id="edge2" class="edge">
<title>a2&#45;&gt;a3</title>
<path fill="none" stroke="#000000" d="M71.1597,-20.2C76.1383,-20.2 82.8758,-20.2 89.1656,-20.2"/>
<polygon fill="#000000" stroke="#000000" points="89.527,-23.7001 99.5269,-20.2 89.5269,-16.7001 89.527,-23.7001"/>
</g>
<!-- a4 -->
<g id="node4" class="node">
<title>a4</title>
<ellipse fill="#ffffff" stroke="#000000" cx="150.4" cy="-20.2" rx="7.2" ry="7.2"/>
<text text-anchor="middle" x="136.7" y="-3.4" font-family="Helvetica,sans-Serif" font-size="12.00" fill="#000000">xy</text>
</g>
<!-- a3&#45;&gt;a4 -->
<g id="edge3" class="edge">
<title>a3&#45;&gt;a4</title>
<path fill="none" stroke="#000000" d="M114.5597,-20.2C119.5383,-20.2 126.2758,-20.2 132.5656,-20.2"/>
<polygon fill="#000000" stroke="#000000" points="132.927,-23.7001 142.9269,-20.2 132.9269,-16.7001 132.927,-23.7001"/>
</g>
<!-- a5 -->
<g id="node5" class="node">
<title>a5</title>
<ellipse fill="#ffffff" stroke="#000000" cx="193.8" cy="-20.2" rx="7.2" ry="7.2"/>
<text text-anchor="middle" x="178.6" y="-3.4" font-family="Helvetica,sans-Serif" font-size="12.00" fill="#000000">!xy</text>
</g>
<!-- a4&#45;&gt;a5 -->
<g id="edge4" class="edge">
<title>a4&#45;&gt;a5</title>
<path fill="none" stroke="#000000" d="M157.9597,-20.2C162.9383,-20.2 169.6758,-20.2 175.9656,-20.2"/>
<polygon fill="#000000" stroke="#000000" points="176.327,-23.7001 186.3269,-20.2 176.3269,-16.7001 176.327,-23.7001"/>
</g>
<!-- a6 -->
<g id="node6" class="node">
<title>a6</title>
<ellipse fill="#ffffff" stroke="#000000" cx="237.2" cy="-20.2" rx="7.2" ry="7.2"/>
<text text-anchor="middle" x="220.5" y="-3.4" font-family="Helvetica,sans-Serif" font-size="12.00" fill="#000000">!x!y</text>
</g>
<!-- a5&#45;&gt;a6 -->
<g id="edge5" class="edge">
<title>a5&#45;&gt;a6</title>
<path fill="none" stroke="#000000" d="M201.3597,-20.2C206.3383,-20.2 213.0758,-20.2 219.3656,-20.2"/>
<polygon fill="#000000" stroke="#000000" points="219.727,-23.7001 229.7269,-20.2 219.7269,-16.7001 219.727,-23.7001"/>
</g>
</g>
</svg>
